<svg width="61" height="60" viewBox="0 0 61 60" fill="none" xmlns="http://www.w3.org/2000/svg">
<path d="M40.6816 6.13506C41.3846 6.83829 41.7795 7.79194 41.7795 8.78631C41.7795 9.78067 41.3846 10.7343 40.6816 11.4376L22.1191 30.0001L40.6816 48.5626C41.3647 49.2698 41.7427 50.2171 41.7341 51.2003C41.7256 52.1836 41.3312 53.1241 40.6359 53.8194C39.9406 54.5147 39.0001 54.909 38.0168 54.9176C37.0336 54.9261 36.0863 54.5481 35.3791 53.8651L14.1653 32.6513C13.4623 31.9481 13.0674 30.9944 13.0674 30.0001C13.0674 29.0057 13.4623 28.052 14.1653 27.3488L35.3791 6.13506C36.0823 5.43204 37.036 5.03711 38.0303 5.03711C39.0247 5.03711 39.9784 5.43204 40.6816 6.13506Z" fill="white"/>
</svg>
