<svg width="61" height="60" viewBox="0 0 61 60" fill="none" xmlns="http://www.w3.org/2000/svg">
<path d="M20.3189 6.13506C19.6159 6.83829 19.2209 7.79194 19.2209 8.78631C19.2209 9.78067 19.6159 10.7343 20.3189 11.4376L38.8814 30.0001L20.3189 48.5626C19.6358 49.2698 19.2578 50.2171 19.2664 51.2003C19.2749 52.1836 19.6693 53.1241 20.3646 53.8194C21.0599 54.5147 22.0004 54.909 22.9836 54.9176C23.9669 54.9261 24.9141 54.5481 25.6214 53.8651L46.8351 32.6513C47.5382 31.9481 47.9331 30.9944 47.9331 30.0001C47.9331 29.0057 47.5382 28.052 46.8351 27.3488L25.6214 6.13506C24.9182 5.43204 23.9645 5.03711 22.9701 5.03711C21.9758 5.03711 21.0221 5.43204 20.3189 6.13506Z" fill="white"/>
</svg>
