<svg width="18" height="18" viewBox="0 0 18 18" fill="none" xmlns="http://www.w3.org/2000/svg">
<path d="M15.2578 9.58884L9.42359 2.86521C9.37085 2.80437 9.30566 2.75558 9.23241 2.72213C9.15917 2.68869 9.0796 2.67139 8.99908 2.67139C8.91857 2.67139 8.83899 2.68869 8.76575 2.72213C8.6925 2.75558 8.62731 2.80437 8.57457 2.86521L2.74215 9.58884C2.72452 9.60911 2.7131 9.63401 2.70923 9.66059C2.70536 9.68717 2.70921 9.7143 2.72032 9.73875C2.73144 9.7632 2.74934 9.78394 2.77191 9.7985C2.79448 9.81306 2.82076 9.82083 2.84762 9.82087H4.27144C4.3523 9.82087 4.42965 9.78572 4.48414 9.72419L8.33199 5.28923V15.1875C8.33199 15.2648 8.39527 15.3281 8.47262 15.3281H9.5273C9.60465 15.3281 9.66793 15.2648 9.66793 15.1875V5.28923L13.5158 9.72419C13.5685 9.78572 13.6459 9.82087 13.7285 9.82087H15.1523C15.2718 9.82087 15.3369 9.68025 15.2578 9.58884Z" fill="black"/>
</svg>
